<svg
  width="329"
  height="292"
  viewBox="0 0 329 292"
  fill="currentColor"
  xmlns="http://www.w3.org/2000/svg"
>
  <path
    d="M0 212.499V133.237H32.4255H64.8509V143.731V154.225L85.3838 157.111C107.462 160.215 116.571 163.779 127.531 173.601C141.044 185.711 143.059 186.192 184.645 187.233C210.503 187.88 223.751 188.909 226.509 190.485C231.896 193.562 235.985 201.858 235.985 209.707C235.985 217.496 233.473 217.365 274.973 211.748C292.666 209.353 309.369 207.826 312.092 208.354C314.816 208.883 319.477 212.086 322.451 215.473C329.872 223.925 330.049 235.209 322.887 243.224C318.218 248.45 313.996 249.774 253.083 265.099C170.031 285.994 171.131 285.947 109.658 271.287C86.2491 265.704 66.5911 261.137 65.9736 261.137C65.3562 261.137 64.8509 268.027 64.8509 276.449V291.761H32.4255H0V212.499ZM52.241 213.399V147.648H32.4255H12.6099V213.399V279.151H32.4255H52.241V213.399ZM247.695 252.811C282.372 244.236 311.757 236.423 312.996 235.448C315.857 233.195 315.908 226.49 313.086 223.668C309.945 220.527 303.698 220.909 260.012 226.91C225.644 231.631 215.381 232.314 178.79 232.314L136.908 232.314V226.009V219.704H176.847C211.483 219.704 217.224 219.309 220.081 216.723C224.246 212.954 224.311 206.696 220.223 203.006C217.622 200.66 210.762 200.059 181.042 199.575C140.058 198.907 136.587 197.999 118.38 183.168C107.765 174.523 101.721 172.008 87.3686 170.263C82.4147 169.661 75.3059 168.711 71.5712 168.152L64.7811 167.135L65.2663 207.343L65.7516 247.552L108.986 257.783C170.637 272.372 168.236 272.458 247.694 252.811H247.695Z"
    fill="currentColor"
  />
  <path
    d="M178.732 155.503C149.507 149.145 126.218 127.169 118.558 98.7201C115.268 86.5002 116.023 65.2789 120.177 53.2776C140.835 -6.41852 219.503 -19.0354 257.691 31.2228C269.119 46.2634 272.489 57.0885 272.539 78.9173C272.58 96.969 272.286 98.4532 266.083 111.442C254.481 135.734 232.657 152.262 206.831 156.315C192.763 158.522 192.586 158.517 178.732 155.503V155.503ZM223.369 137.824C228.886 135.124 237.206 128.847 241.858 123.873C276.875 86.4378 259.883 27.418 210.461 14.8182C180.843 7.2671 151.399 20.7544 136.507 48.6941C131.651 57.8055 130.38 62.4846 129.735 73.6204C127.97 104.117 142.622 127.836 170.481 139.58C179.245 143.275 183.048 143.809 197.024 143.312C210.375 142.837 215.159 141.84 223.369 137.824V137.824ZM190.018 129.957C189.357 129.297 188.811 126.662 188.805 124.103C188.798 120.832 187.202 118.543 183.439 116.402C173.407 110.694 167.632 96.4007 173.418 91.599C177.468 88.2376 182.113 90.1049 183.608 95.6955C185.648 103.324 188.627 105.938 195.279 105.938C201.856 105.938 205.029 102.238 205.029 94.5683C205.029 88.9719 202.28 86.7376 192.762 84.5991C188.571 83.6573 183.063 81.5252 180.523 79.8612C175.63 76.655 170.802 67.1802 170.802 60.7829C170.802 54.0847 176.648 44.3084 182.837 40.6571C186.913 38.2518 188.817 35.7806 188.817 32.8928C188.817 30.5629 190.214 27.8745 191.923 26.9185C196.725 24.231 201.427 27.7071 201.427 33.9453C201.427 37.1535 202.371 39.2862 203.792 39.2862C210.11 39.2862 220.775 57.1313 218.305 63.5692C215.756 70.2106 207.119 68.1994 205.601 60.611C204.486 55.0318 199.016 50.0946 193.951 50.0946C190.55 50.0946 183.412 58.1901 183.412 62.0468C183.412 66.3893 189.861 71.1301 197.41 72.3373C220.386 76.0113 226.23 105.883 206.082 116.666C203.311 118.148 201.427 120.712 201.427 122.996C201.427 129.296 193.93 133.87 190.018 129.957V129.957Z"
    fill="currentColor"
  />
</svg>
