<svg
  width="329"
  height="344"
  viewBox="0 0 329 344"
  fill="none"
  xmlns="http://www.w3.org/2000/svg"
>
  <path d="M131 135H204V145.429H131V135Z" fill="currentColor" />
  <path
    d="M87.0497 340.932C85.3941 339.103 85.1253 335.558 85.1253 315.549V292.292L79.8881 288.531C72.5567 283.266 60.3907 270.744 55.6722 263.606C46.0573 249.062 37.4528 225.907 37.4528 214.577C37.4528 210.814 37.4384 210.805 30.1856 209.992C17.3568 208.554 8.92911 203.085 3.44468 192.64C1.37984 188.707 0.836771 185.346 0.460262 174.17L0 160.508H6.51757H13.0351V172.545C13.0351 183.113 13.3543 185.05 15.6513 188.426C19.8642 194.616 23.6432 196.773 30.6075 196.964L36.8391 197.134L37.6286 190.125C42.3053 148.606 72.312 115.932 115.938 104.855C130.1 101.26 146.322 100.045 180.189 100.045H211.055L235.119 82.0226C248.355 72.1102 260.28 64 261.62 64C267.014 64 267.676 67.3063 267.676 94.2283V119.288L274.048 126.026C284.289 136.856 289.355 148.917 291.584 167.775L292.236 173.298H308.263C322.313 173.298 324.528 173.56 326.215 175.424C327.909 177.297 328.139 181.449 328.139 210.164C328.139 239.043 327.919 242.961 326.222 244.374C324.873 245.496 319.308 246.142 307.457 246.551L290.609 247.132L288.995 253.527C285.258 268.331 275.601 281.259 262.608 288.854L254.886 293.367V316.818C254.886 333.507 254.484 340.671 253.491 341.664C252.486 342.669 244.543 343.059 225.087 343.059C202.083 343.059 197.807 342.788 196.251 341.232C194.764 339.746 194.423 336.382 194.423 323.209V307.014H170.675H146.927L146.548 323.118C146.278 334.593 145.711 339.773 144.574 341.14C143.175 342.822 139.649 343.059 115.976 343.059C91.2936 343.059 88.8087 342.876 87.0497 340.932V340.932ZM133.961 312.246V294.224H170.587H207.214V312.246V330.269H225.236H243.259V307.228V284.187L249.363 281.652C265.055 275.136 274.3 263.155 278.09 244.424L280.13 234.342L297.739 234.021L315.349 233.7V209.894V186.088H297.488H279.628L278.982 173.007C277.977 152.642 274.391 144.193 261.303 131.356L254.886 125.062V104.414C254.886 93.0581 254.615 83.7667 254.283 83.7667C253.951 83.7667 244.972 90.3071 234.331 98.301L214.984 112.835L179.414 112.842C141.518 112.849 128.965 113.97 113.613 118.714C95.7543 124.233 78.5049 135.314 67.9234 148.064C61.9252 155.292 54.5736 170.011 52.0867 179.772C46.1916 202.91 50.0769 230.816 61.9596 250.685C67.6067 260.127 81.6037 274.656 90.4137 280.22L97.9155 284.958V307.613V330.269H115.938H133.961V312.246Z"
    fill="currentColor"
  />
  <path
    d="M168 83.3333V16.6667"
    stroke="currentColor"
    stroke-width="10"
    stroke-linecap="round"
    stroke-linejoin="round"
  />
  <path
    d="M138.833 54.1667L168 83.3333L197.167 54.1667"
    stroke="currentColor"
    stroke-width="10"
    stroke-linecap="round"
    stroke-linejoin="round"
  />
</svg>
