<svg
  width="329"
  height="323"
  viewBox="0 0 329 323"
  fill="none"
  xmlns="http://www.w3.org/2000/svg"
>
  <path d="M131 114H204V124.429H131V114Z" fill="currentColor" />
  <path
    d="M87.0497 319.932C85.3941 318.103 85.1253 314.558 85.1253 294.549V271.292L79.8881 267.531C72.5567 262.266 60.3907 249.744 55.6722 242.606C46.0573 228.062 37.4528 204.907 37.4528 193.577C37.4528 189.814 37.4384 189.805 30.1856 188.992C17.3568 187.554 8.92911 182.085 3.44468 171.64C1.37984 167.707 0.836771 164.346 0.460262 153.17L0 139.508H6.51757H13.0351V151.545C13.0351 162.113 13.3543 164.05 15.6513 167.426C19.8642 173.616 23.6432 175.773 30.6075 175.964L36.8391 176.134L37.6286 169.125C42.3053 127.606 72.312 94.9324 115.938 83.8554C130.1 80.2597 146.322 79.0451 180.189 79.0451H211.055L235.119 61.0226C248.355 51.1102 260.28 43 261.62 43C267.014 43 267.676 46.3063 267.676 73.2283V98.2881L274.048 105.026C284.289 115.856 289.355 127.917 291.584 146.775L292.236 152.298H308.263C322.313 152.298 324.528 152.56 326.215 154.424C327.909 156.297 328.139 160.449 328.139 189.164C328.139 218.043 327.919 221.961 326.222 223.374C324.873 224.496 319.308 225.142 307.457 225.551L290.609 226.132L288.995 232.527C285.258 247.331 275.601 260.259 262.608 267.854L254.886 272.367V295.818C254.886 312.507 254.484 319.671 253.491 320.664C252.486 321.669 244.543 322.059 225.087 322.059C202.083 322.059 197.807 321.788 196.251 320.232C194.764 318.746 194.423 315.382 194.423 302.209V286.014H170.675H146.927L146.548 302.118C146.278 313.593 145.711 318.773 144.574 320.14C143.175 321.822 139.649 322.059 115.976 322.059C91.2936 322.059 88.8087 321.876 87.0497 319.932V319.932ZM133.961 291.246V273.224H170.587H207.214V291.246V309.269H225.236H243.259V286.228V263.187L249.363 260.652C265.055 254.136 274.3 242.155 278.09 223.424L280.13 213.342L297.739 213.021L315.349 212.7V188.894V165.088H297.488H279.628L278.982 152.007C277.977 131.642 274.391 123.193 261.303 110.356L254.886 104.062V83.4143C254.886 72.0581 254.615 62.7667 254.283 62.7667C253.951 62.7667 244.972 69.3071 234.331 77.301L214.984 91.8353L179.414 91.8423C141.518 91.8493 128.965 92.9698 113.613 97.7142C95.7543 103.233 78.5049 114.314 67.9234 127.064C61.9252 134.292 54.5736 149.011 52.0867 158.772C46.1916 181.91 50.0769 209.816 61.9596 229.685C67.6067 239.127 81.6037 253.656 90.4137 259.22L97.9155 263.958V286.613V309.269H115.938H133.961V291.246Z"
    fill="currentColor"
  />
  <path
    d="M225 26.6665L158.333 26.6665"
    stroke="currentColor"
    stroke-width="10"
    stroke-linecap="round"
    stroke-linejoin="round"
  />
  <path
    d="M197 48L226 26.5L197 5"
    stroke="currentColor"
    stroke-width="10"
    stroke-linecap="round"
    stroke-linejoin="round"
  />
  <path
    d="M110 46.8333L176.667 46.8333"
    stroke="currentColor"
    stroke-width="10"
    stroke-linecap="round"
    stroke-linejoin="round"
  />
  <path
    d="M138 68L109 46.5L138 25"
    stroke="currentColor"
    stroke-width="10"
    stroke-linecap="round"
    stroke-linejoin="round"
  />
</svg>
